<svg xmlns="http://www.w3.org/2000/svg" width="583.905" height="537.781" viewBox="0 0 583.905 537.781">
  <g id="Group_83" data-name="Group 83" transform="translate(0 33.372)">
    <circle id="Ellipse_2" data-name="Ellipse 2" cx="14.753" cy="14.753" r="14.753" transform="translate(382.591 421.111)" fill="#6c63ff"/>
    <circle id="Ellipse_4" data-name="Ellipse 4" cx="8.746" cy="8.746" r="8.746" transform="translate(409.349 461.546)" fill="#6c63ff"/>
    <circle id="Ellipse_5" data-name="Ellipse 5" cx="14.753" cy="14.753" r="14.753" transform="translate(377.123 406.983)" fill="#6c63ff"/>
    <g id="Group_1" data-name="Group 1" transform="translate(454.613 -0.203)" opacity="0.5">
      <rect id="Rectangle_16" data-name="Rectangle 16" width="2.064" height="11.698" transform="translate(4.817)" fill="#47e6b1"/>
      <rect id="Rectangle_17" data-name="Rectangle 17" width="2.064" height="11.698" transform="translate(11.698 4.817) rotate(90)" fill="#47e6b1"/>
    </g>
    <g id="Group_2" data-name="Group 2" transform="translate(114.857 92.608)" opacity="0.5">
      <rect id="Rectangle_18" data-name="Rectangle 18" width="2.064" height="11.698" transform="translate(4.817)" fill="#47e6b1"/>
      <rect id="Rectangle_19" data-name="Rectangle 19" width="2.064" height="11.698" transform="translate(11.698 4.817) rotate(90)" fill="#47e6b1"/>
    </g>
    <g id="Group_3" data-name="Group 3" transform="translate(270.979 492.711)" opacity="0.5">
      <rect id="Rectangle_20" data-name="Rectangle 20" width="2.064" height="11.698" transform="translate(4.817)" fill="#47e6b1"/>
      <rect id="Rectangle_21" data-name="Rectangle 21" width="2.064" height="11.698" transform="translate(11.698 4.817) rotate(90)" fill="#47e6b1"/>
    </g>
    <path id="Path_2" data-name="Path 2" d="M942.378,657.166a2.525,2.525,0,0,1-1.411-3.055,1.307,1.307,0,0,0,.055-.275h0a1.266,1.266,0,0,0-2.278-.846h0a1.306,1.306,0,0,0-.138.255,2.532,2.532,0,0,1-3.062,1.376,1.21,1.21,0,0,0-.275-.055h0a1.266,1.266,0,0,0-.84,2.278h0a1.118,1.118,0,0,0,.248.145,2.532,2.532,0,0,1,1.411,3.055.793.793,0,0,0-.055.282h0a1.266,1.266,0,0,0,2.278.84h0a1.746,1.746,0,0,0,.138-.248,2.525,2.525,0,0,1,3.055-1.376,1.274,1.274,0,0,0,.282.055h0a1.266,1.266,0,0,0,.839-2.278h0A1.793,1.793,0,0,0,942.378,657.166Z" transform="translate(-399.148 -252.466)" fill="#4d8af0" opacity="0.5"/>
    <path id="Path_3" data-name="Path 3" d="M866.378,758.166a2.525,2.525,0,0,1-1.411-3.055,1.3,1.3,0,0,0,.055-.275h0a1.266,1.266,0,0,0-2.278-.846h0a1.308,1.308,0,0,0-.138.255,2.532,2.532,0,0,1-3.062,1.376,1.217,1.217,0,0,0-.275-.055h0a1.266,1.266,0,0,0-.839,2.278h0a1.116,1.116,0,0,0,.248.145,2.532,2.532,0,0,1,1.411,3.055.792.792,0,0,0-.055.282h0a1.266,1.266,0,0,0,2.278.839h0a1.743,1.743,0,0,0,.138-.248,2.525,2.525,0,0,1,3.055-1.376,1.274,1.274,0,0,0,.282.055h0a1.266,1.266,0,0,0,.84-2.278h0A1.79,1.79,0,0,0,866.378,758.166Z" transform="translate(-375.383 -284.069)" fill="#4d8af0" opacity="0.5"/>
    <path id="Path_4" data-name="Path 4" d="M249.378,710.166a2.525,2.525,0,0,1-1.411-3.055,1.3,1.3,0,0,0,.055-.275h0a1.266,1.266,0,0,0-2.278-.846h0a1.311,1.311,0,0,0-.138.255,2.532,2.532,0,0,1-3.062,1.376,1.217,1.217,0,0,0-.275-.055h0a1.266,1.266,0,0,0-.84,2.278h0a1.117,1.117,0,0,0,.248.145,2.532,2.532,0,0,1,1.376,3.055.792.792,0,0,0-.055.282h0a1.266,1.266,0,0,0,2.278.839h0a1.742,1.742,0,0,0,.138-.248,2.525,2.525,0,0,1,3.055-1.376,1.281,1.281,0,0,0,.282.055h0a1.266,1.266,0,0,0,.84-2.278h0A1.8,1.8,0,0,0,249.378,710.166Z" transform="translate(-182.705 -269.099)" fill="#4d8af0" opacity="0.5"/>
    <circle id="Ellipse_6" data-name="Ellipse 6" cx="4.129" cy="4.129" r="4.129" transform="translate(334.943 34.204)" fill="#f55f44" opacity="0.5"/>
    <circle id="Ellipse_7" data-name="Ellipse 7" cx="4.129" cy="4.129" r="4.129" transform="translate(0 45.902)" fill="#4d8af0" opacity="0.5"/>
    <circle id="Ellipse_8" data-name="Ellipse 8" cx="4.129" cy="4.129" r="4.129" transform="translate(575.647 278.232)" fill="#47e6b1" opacity="0.5"/>
    <circle id="Ellipse_9" data-name="Ellipse 9" cx="4.129" cy="4.129" r="4.129" transform="translate(36.471 202.608)" fill="#f55f44" opacity="0.5"/>
    <text id="SMS" transform="translate(235.647 -3.687) rotate(-13)" fill="#3c3c3c" font-size="20" font-family="Poppins-Medium, Poppins" font-weight="500" opacity="0.12"><tspan x="0" y="0">SMS</tspan></text>
    <text id="SMS-2" data-name="SMS" transform="translate(379.647 109.313) rotate(-13)" fill="#3c3c3c" font-size="20" font-family="Poppins-Medium, Poppins" font-weight="500" opacity="0.12"><tspan x="0" y="0">SMS</tspan></text>
    <text id="SMS-3" data-name="SMS" transform="translate(109.647 170.313) rotate(-13)" fill="#3c3c3c" font-size="20" font-family="Poppins-Medium, Poppins" font-weight="500" opacity="0.12"><tspan x="0" y="0">SMS</tspan></text>
  </g>
</svg>
