<svg id="microphone" xmlns="http://www.w3.org/2000/svg" width="80" height="80" viewBox="0 0 80 80">
  <circle id="Ellipse_18" data-name="Ellipse 18" cx="40" cy="40" r="40" transform="translate(0 0)" fill="#f60" opacity="0.32"/>
  <rect id="Rectangle_62" data-name="Rectangle 62" width="11.12" height="12.596" transform="translate(34.467 60.922)" fill="#dededf"/>
  <path id="Path_10" data-name="Path 10" d="M176.751,16.275h0A14.35,14.35,0,0,0,162.416,30.61V53.325A14.35,14.35,0,0,0,176.751,67.66h0a14.35,14.35,0,0,0,14.335-14.335V30.61A14.35,14.35,0,0,0,176.751,16.275Z" transform="translate(-136.751 -13.745)" fill="#646b79"/>
  <g id="Group_14" data-name="Group 14" transform="translate(18.181 24.399)">
    <path id="Path_11" data-name="Path 11" d="M136.087,189.933a21.863,21.863,0,0,1-21.819-21.819v-14.7a1.845,1.845,0,0,1,3.689,0v14.7a18.13,18.13,0,1,0,36.259,0v-14.7a1.845,1.845,0,0,1,3.689,0v14.7A21.863,21.863,0,0,1,136.087,189.933Z" transform="translate(-114.268 -151.566)" fill="#f1f3f7"/>
    <rect id="Rectangle_63" data-name="Rectangle 63" width="28.881" height="3.689" transform="translate(7.378 47.221)" fill="#f1f3f7"/>
  </g>
  <g id="Group_15" data-name="Group 15" transform="translate(25.665 18.706)">
    <path id="Path_12" data-name="Path 12" d="M170.532,118.675h-8.116v4.532h8.116a2.266,2.266,0,0,0,0-4.532Z" transform="translate(-162.416 -118.675)" fill="#414753"/>
    <path id="Path_13" data-name="Path 13" d="M170.532,167.163h-8.116V171.7h8.116a2.266,2.266,0,0,0,0-4.532Z" transform="translate(-162.416 -159.626)" fill="#414753"/>
    <path id="Path_14" data-name="Path 14" d="M170.532,215.65h-8.116v4.532h8.116a2.266,2.266,0,0,0,0-4.532Z" transform="translate(-162.416 -200.577)" fill="#414753"/>
    <path id="Path_15" data-name="Path 15" d="M282.34,220.183h8.116v-4.532H282.34a2.249,2.249,0,0,0-2.266,2.266A2.283,2.283,0,0,0,282.34,220.183Z" transform="translate(-261.786 -200.578)" fill="#414753"/>
    <path id="Path_16" data-name="Path 16" d="M282.34,171.7h8.116v-4.532H282.34a2.266,2.266,0,0,0,0,4.532Z" transform="translate(-261.786 -159.626)" fill="#414753"/>
    <path id="Path_17" data-name="Path 17" d="M282.34,123.208h8.116v-4.532H282.34a2.266,2.266,0,0,0,0,4.532Z" transform="translate(-261.786 -118.676)" fill="#414753"/>
  </g>
</svg>
