<svg xmlns="http://www.w3.org/2000/svg" width="76" height="80" viewBox="0 0 76 80">
  <g id="mobile-app" transform="translate(-11)">
    <ellipse id="Ellipse_20" data-name="Ellipse 20" cx="38" cy="38.274" rx="38" ry="38.274" transform="translate(11 3.453)" fill="#5dc1d8"/>
    <path id="Path_27" data-name="Path 27" d="M111.539,63.182a.628.628,0,0,1,.628-.628h.686a.157.157,0,0,0,.111-.268l-7.457-7.457a2.2,2.2,0,0,1,0-3.107l.312-.312a2.2,2.2,0,0,1,3.107,0l1.955,1.955a.157.157,0,0,0,.111.046.155.155,0,0,0,.06-.012.157.157,0,0,0,.1-.145V37.313a2.2,2.2,0,0,1,2.2-2.2h.065a2.191,2.191,0,0,1,1.659.761V1.569A1.574,1.574,0,0,0,113.5,0H80.27A1.574,1.574,0,0,0,78.7,1.569V62.693a1.574,1.574,0,0,0,1.569,1.569h31.269V63.182Z" transform="translate(-57.076 0)" fill="#2e4c89"/>
    <path id="Path_28" data-name="Path 28" d="M116.721,85.205a2.181,2.181,0,0,1,.641-1.554l.312-.312a2.2,2.2,0,0,1,3.107,0l1.955,1.955a.157.157,0,0,0,.111.046.155.155,0,0,0,.06-.012.157.157,0,0,0,.1-.145V69.243a2.2,2.2,0,0,1,1.715-2.142V38.7a.831.831,0,0,0-.828-.828h-30.3a.831.831,0,0,0-.828.828V85.3a.83.83,0,0,0,.828.828h23.333A2.2,2.2,0,0,1,116.721,85.205Z" transform="translate(-69.189 -31.93)" fill="#c3ddf4"/>
    <path id="Path_29" data-name="Path 29" d="M95.877,85.3V38.7a.831.831,0,0,1,.828-.828H93.591a.831.831,0,0,0-.828.828V85.3a.83.83,0,0,0,.828.828h3.114A.83.83,0,0,1,95.877,85.3Z" transform="translate(-69.09 -31.93)" fill="#aec1ed"/>
    <g id="Group_19" data-name="Group 19" transform="translate(31.849 1.633)">
      <ellipse id="Ellipse_21" data-name="Ellipse 21" cx="2.913" cy="2.913" rx="2.913" ry="2.913" transform="translate(4.737 54.155)" fill="#1a2b63"/>
      <path id="Path_30" data-name="Path 30" d="M180.186,13.7h-9a1.177,1.177,0,0,1,0-2.354h9a1.177,1.177,0,0,1,0,2.354Z" transform="translate(-166.208 -11.195)" fill="#1a2b63"/>
      <ellipse id="Ellipse_22" data-name="Ellipse 22" cx="1.324" cy="1.324" rx="1.324" ry="1.324" fill="#1a2b63"/>
    </g>
    <path id="Path_31" data-name="Path 31" d="M123.889,37.874h-30.3a.831.831,0,0,0-.828.828v3.676h31.955V38.7A.831.831,0,0,0,123.889,37.874Z" transform="translate(-69.189 -31.93)" fill="#ff9518"/>
    <path id="Path_32" data-name="Path 32" d="M96.705,37.874H93.591a.831.831,0,0,0-.828.828v3.676h3.114V38.7A.831.831,0,0,1,96.705,37.874Z" transform="translate(-69.09 -31.93)" fill="#ef8318"/>
    <path id="Path_33" data-name="Path 33" d="M135.423,173.788a1.574,1.574,0,0,1-1.569,1.569H109.934a1.574,1.574,0,0,1-1.569-1.569v-7.627a1.574,1.574,0,0,1,1.569-1.569h23.919a1.574,1.574,0,0,1,1.569,1.569Z" transform="translate(-82.361 -138.892)" fill="#445ea0"/>
    <path id="Path_34" data-name="Path 34" d="M116.721,262.859a2.181,2.181,0,0,1,.641-1.554l.312-.312a2.2,2.2,0,0,1,3.107,0l1.955,1.955a.157.157,0,0,0,.111.046.155.155,0,0,0,.06-.012.157.157,0,0,0,.1-.145V248.6H92.763v14.354a.83.83,0,0,0,.828.828h23.333A2.2,2.2,0,0,1,116.721,262.859Z" transform="translate(-69.179 -209.797)" fill="#eef6ff"/>
    <path id="Path_35" data-name="Path 35" d="M95.877,262.955V248.6H92.763v14.354a.83.83,0,0,0,.828.828h3.114A.83.83,0,0,1,95.877,262.955Z" transform="translate(-69.09 -209.797)" fill="#d9eafc"/>
    <g id="Group_20" data-name="Group 20" transform="translate(28.35 40.881)">
      <path id="Path_36" data-name="Path 36" d="M136.876,264.162H124.357a1.177,1.177,0,1,1,0-2.354h12.519a1.177,1.177,0,1,1,0,2.354Z" transform="translate(-123.18 -261.808)" fill="#5dc1d8"/>
      <path id="Path_37" data-name="Path 37" d="M136.876,289.027H124.357a1.177,1.177,0,0,1,0-2.354h12.519a1.177,1.177,0,1,1,0,2.354Z" transform="translate(-123.18 -282.771)" fill="#5dc1d8"/>
      <path id="Path_38" data-name="Path 38" d="M130.641,313.891h-6.284a1.177,1.177,0,0,1,0-2.354h6.284a1.177,1.177,0,1,1,0,2.354Z" transform="translate(-123.18 -303.732)" fill="#5dc1d8"/>
    </g>
    <path id="Path_39" data-name="Path 39" d="M242.537,276.756a1.177,1.177,0,0,1-.95-1.87l1.54-2.114-1.54-2.114a1.177,1.177,0,0,1,1.9-1.386l2.045,2.807a1.177,1.177,0,0,1,0,1.386l-2.045,2.807A1.176,1.176,0,0,1,242.537,276.756Z" transform="translate(-194.657 -226.81)" fill="#ff9518"/>
    <path id="Path_40" data-name="Path 40" d="M297.073,439.522v10.834a38.242,38.242,0,0,0,15.648-6.439v-4.4Z" transform="translate(-241.837 -370.897)" fill="#ef8318"/>
    <path id="Path_41" data-name="Path 41" d="M297.073,439.522v10.834q1.58-.267,3.114-.661V439.522Z" transform="translate(-241.725 -370.897)" fill="#db722c"/>
    <path id="Path_42" data-name="Path 42" d="M268.6,250.338V234.027a2.361,2.361,0,0,0-2.354-2.354h-.065a2.361,2.361,0,0,0-2.155,1.413,2.361,2.361,0,0,0-2.155-1.413H261.8a2.361,2.361,0,0,0-2.155,1.413,2.361,2.361,0,0,0-2.155-1.413h-.065a2.356,2.356,0,0,0-1.957,1.05V225.1a2.361,2.361,0,0,0-2.354-2.354h-.065A2.361,2.361,0,0,0,250.7,225.1v15.941l-1.955-1.955a2.361,2.361,0,0,0-3.329,0l-.311.312a2.361,2.361,0,0,0,0,3.329l7.614,7.614Z" transform="translate(-197.411 -188.021)" fill="#ffe2b8"/>
    <path id="Path_43" data-name="Path 43" d="M255.829,334.431l-7.614-7.614a2.361,2.361,0,0,1,0-3.329l.311-.312c.035-.035.071-.065.107-.1a2.36,2.36,0,0,0-3.222.1l-.311.312a2.361,2.361,0,0,0,0,3.329l7.614,7.614Z" transform="translate(-197.286 -272.141)" fill="#ffc987"/>
    <path id="Path_44" data-name="Path 44" d="M305.765,403.525a.787.787,0,0,1-.785.785H287.719a.787.787,0,0,1-.785-.785v-5.172a.787.787,0,0,1,.785-.785H304.98a.787.787,0,0,1,.785.785Z" transform="translate(-233.301 -335.528)" fill="#ff9518"/>
    <path id="Path_45" data-name="Path 45" d="M290.047,403.525v-5.172a.787.787,0,0,1,.785-.785h-3.114a.787.787,0,0,0-.785.785v5.172a.787.787,0,0,0,.785.785h3.114A.787.787,0,0,1,290.047,403.525Z" transform="translate(-233.162 -335.528)" fill="#ef8318"/>
    <ellipse id="Ellipse_23" data-name="Ellipse 23" cx="1.459" cy="1.459" rx="1.459" ry="1.459" transform="translate(67.532 63.953)" fill="#db722c"/>
    <path id="Path_46" data-name="Path 46" d="M349.056,148.372a.787.787,0,0,1-.785.785H325.7a.787.787,0,0,1-.785-.785V132.091a.787.787,0,0,1,.785-.785h22.567a.787.787,0,0,1,.785.785Z" transform="translate(-265.555 -110.816)" fill="#fe3745"/>
    <path id="Path_47" data-name="Path 47" d="M376.7,160.085c0-.863.612-1.216,1.359-.785l6.221,3.591a.83.83,0,0,1,0,1.569l-6.221,3.592c-.748.432-1.359.078-1.359-.785Z" transform="translate(-309.207 -134.269)" fill="#fff"/>
    <path id="Path_48" data-name="Path 48" d="M347.167,54.22a3.529,3.529,0,0,1-3.4-4.464H325.7a.787.787,0,0,0-.785.785V59.85a.787.787,0,0,0,.785.785h22.567a.787.787,0,0,0,.785-.785V53.67A3.508,3.508,0,0,1,347.167,54.22Z" transform="translate(-265.555 -41.947)" fill="#ffaf10"/>
    <path id="Path_49" data-name="Path 49" d="M328.034,148.372V132.091a.787.787,0,0,1,.785-.785H325.7a.787.787,0,0,0-.785.785v16.281a.787.787,0,0,0,.785.785h3.114A.787.787,0,0,1,328.034,148.372Z" transform="translate(-265.261 -110.816)" fill="#b7092b"/>
    <path id="Path_50" data-name="Path 50" d="M328.034,59.85V50.541a.787.787,0,0,1,.785-.785H325.7a.787.787,0,0,0-.785.785V59.85a.787.787,0,0,0,.785.785h3.114A.787.787,0,0,1,328.034,59.85Z" transform="translate(-265.261 -41.947)" fill="#ef9614"/>
    <ellipse id="Ellipse_24" data-name="Ellipse 24" cx="3.688" cy="3.688" rx="3.688" ry="3.688" transform="translate(77.924 5.055)" fill="#b7092b"/>
    <path id="Path_51" data-name="Path 51" d="M460.168,46.9a.785.785,0,0,1-.785-.785V44.407a.785.785,0,0,1,.226-1.537h.559a.785.785,0,0,1,.785.785v2.458A.785.785,0,0,1,460.168,46.9Z" transform="translate(-378.443 -36.142)" fill="#eef6ff"/>
    <g id="Group_21" data-name="Group 21" transform="translate(61.986 10.237)">
      <path id="Path_52" data-name="Path 52" d="M354.036,67.577H342.8a1.177,1.177,0,1,1,0-2.354h11.237a1.177,1.177,0,0,1,0,2.354Z" transform="translate(-341.622 -65.223)" fill="#db722c"/>
      <path id="Path_53" data-name="Path 53" d="M357.433,90.768H342.8a1.177,1.177,0,1,1,0-2.354h14.634a1.177,1.177,0,0,1,0,2.354Z" transform="translate(-341.622 -84.774)" fill="#db722c"/>
    </g>
    <ellipse id="Ellipse_25" data-name="Ellipse 25" cx="5.859" cy="5.859" rx="5.859" ry="5.859" transform="translate(33.632 12.283)" fill="#ef8318"/>
    <ellipse id="Ellipse_26" data-name="Ellipse 26" cx="4.708" cy="4.708" rx="4.708" ry="4.708" transform="translate(34.778 13.43)" fill="#ff9518"/>
    <path id="Path_54" data-name="Path 54" d="M182.422,98.931h-1.046v-.252a2.328,2.328,0,1,0-1.6,0v.252h-1.046a.762.762,0,0,0-.759.759v1.826a4.707,4.707,0,0,0,5.208,0V99.69A.761.761,0,0,0,182.422,98.931Z" transform="translate(-141.098 -79.461)" fill="#fff"/>
    <path id="Path_55" data-name="Path 55" d="M128.121,184.725a.787.787,0,0,1-.785.785h-4.551a.787.787,0,0,1-.785-.785v-4.551a.787.787,0,0,1,.785-.785h4.551a.787.787,0,0,1,.785.785Z" transform="translate(-93.801 -151.37)" fill="#ff9518"/>
    <path id="Path_56" data-name="Path 56" d="M123.963,184.725v-4.551a.787.787,0,0,1,.785-.785h-1.963a.787.787,0,0,0-.785.785v4.551a.787.787,0,0,0,.785.785h1.963A.787.787,0,0,1,123.963,184.725Z" transform="translate(-93.791 -151.37)" fill="#ef8318"/>
    <g id="Group_22" data-name="Group 22" transform="translate(35.457 29.901)">
      <path id="Path_57" data-name="Path 57" d="M178.347,192.566a1.923,1.923,0,0,1,.4-1.177h-8.407a1.177,1.177,0,0,0,0,2.354h8.407A1.924,1.924,0,0,1,178.347,192.566Z" transform="translate(-169.166 -191.389)" fill="#1a2b63"/>
      <path id="Path_58" data-name="Path 58" d="M251.688,191.389h-1.92a1.922,1.922,0,0,1,0,2.354h1.92a1.177,1.177,0,1,0,0-2.354Z" transform="translate(-237.118 -191.389)" fill="#1a2b63"/>
    </g>
    <ellipse id="Ellipse_27" data-name="Ellipse 27" cx="2.093" cy="2.093" rx="2.093" ry="2.093" transform="translate(44.428 28.986)" fill="#ff9518"/>
  </g>
</svg>
