<svg xmlns="http://www.w3.org/2000/svg" width="40" height="40" viewBox="0 0 40 40">
  <g id="Orange_Illustration" data-name="Orange Illustration" transform="translate(-188 -999)">
    <circle id="Ellipse_28" data-name="Ellipse 28" cx="20" cy="20" r="20" transform="translate(188 999)" fill="#ffcdac"/>
    <g id="diagram" transform="translate(195.8 1006.804)">
      <g id="Group_29" data-name="Group 29" transform="translate(2.019 2.419)">
        <g id="Group_28" data-name="Group 28">
          <rect id="Rectangle_75" data-name="Rectangle 75" width="5.243" height="0.807" fill="#ff6500"/>
        </g>
      </g>
      <g id="Group_31" data-name="Group 31" transform="translate(2.019 3.999)">
        <g id="Group_30" data-name="Group 30">
          <rect id="Rectangle_76" data-name="Rectangle 76" width="5.243" height="0.807" fill="#ff6500"/>
        </g>
      </g>
      <g id="Group_33" data-name="Group 33" transform="translate(2.019 5.598)">
        <g id="Group_32" data-name="Group 32">
          <rect id="Rectangle_77" data-name="Rectangle 77" width="3.63" height="0.807" fill="#ff6500"/>
        </g>
      </g>
      <g id="Group_35" data-name="Group 35" transform="translate(2.019 7.198)">
        <g id="Group_34" data-name="Group 34">
          <rect id="Rectangle_78" data-name="Rectangle 78" width="3.63" height="0.807" fill="#ff6500"/>
        </g>
      </g>
      <g id="Group_37" data-name="Group 37" transform="translate(0.003 23.193)">
        <g id="Group_36" data-name="Group 36">
          <rect id="Rectangle_79" data-name="Rectangle 79" width="24" height="0.807" fill="#ff6500"/>
        </g>
      </g>
      <g id="Group_39" data-name="Group 39" transform="translate(1.582 -0.001)">
        <g id="Group_38" data-name="Group 38">
          <path id="Path_59" data-name="Path 59" d="M52.9,3.449,51.3.223a.4.4,0,0,0-.536-.181h0l-3.2,1.613a.405.405,0,0,0-.179.541.4.4,0,0,0,.536.181L50.236,1.21,49.6,3.03A21.36,21.36,0,0,1,31.323,17.341l.068.807A22.161,22.161,0,0,0,50.36,3.3L51,1.436,52.18,3.81a.4.4,0,0,0,.536.181A.405.405,0,0,0,52.9,3.449Z" transform="translate(-31.323 0.001)" fill="#ff6500"/>
        </g>
      </g>
      <g id="Group_41" data-name="Group 41" transform="translate(1.616 19.16)">
        <g id="Group_40" data-name="Group 40">
          <path id="Path_60" data-name="Path 60" d="M35.229,384.006H32.406a.4.4,0,0,0-.4.4v2.42a.4.4,0,0,0,.4.4h2.823a.4.4,0,0,0,.4-.4v-2.42A.4.4,0,0,0,35.229,384.006Zm-.4,2.42H32.81v-1.613h2.016Z" transform="translate(-32.003 -384.006)" fill="#ff6500"/>
        </g>
      </g>
      <g id="Group_43" data-name="Group 43" transform="translate(5.994 17.95)">
        <g id="Group_42" data-name="Group 42">
          <path id="Path_61" data-name="Path 61" d="M123.229,360.006h-2.823a.4.4,0,0,0-.4.4v3.63a.4.4,0,0,0,.4.4h2.823a.4.4,0,0,0,.4-.4v-3.63A.4.4,0,0,0,123.229,360.006Zm-.4,3.63H120.81v-2.823h2.016Z" transform="translate(-120.003 -360.006)" fill="#ff6500"/>
        </g>
      </g>
      <g id="Group_45" data-name="Group 45" transform="translate(10.388 15.934)">
        <g id="Group_44" data-name="Group 44">
          <path id="Path_62" data-name="Path 62" d="M211.229,320.006h-2.823a.4.4,0,0,0-.4.4v5.646a.4.4,0,0,0,.4.4h2.823a.4.4,0,0,0,.4-.4v-5.646A.4.4,0,0,0,211.229,320.006Zm-.4,5.646H208.81v-4.839h2.016Z" transform="translate(-208.003 -320.006)" fill="#ff6500"/>
        </g>
      </g>
      <g id="Group_47" data-name="Group 47" transform="translate(14.782 13.111)">
        <g id="Group_46" data-name="Group 46">
          <path id="Path_63" data-name="Path 63" d="M299.229,264.006h-2.823a.4.4,0,0,0-.4.4v8.469a.4.4,0,0,0,.4.4h2.823a.4.4,0,0,0,.4-.4v-8.469A.4.4,0,0,0,299.229,264.006Zm-.4,8.469H296.81v-7.662h2.016Z" transform="translate(-296.003 -264.006)" fill="#ff6500"/>
        </g>
      </g>
      <g id="Group_49" data-name="Group 49" transform="translate(19.164 7.465)">
        <g id="Group_48" data-name="Group 48">
          <path id="Path_64" data-name="Path 64" d="M387.229,152.006h-2.823a.4.4,0,0,0-.4.4v14.115a.4.4,0,0,0,.4.4h2.823a.4.4,0,0,0,.4-.4V152.409A.4.4,0,0,0,387.229,152.006Zm-.4,14.115H384.81V152.813h2.016Z" transform="translate(-384.003 -152.006)" fill="#ff6500"/>
        </g>
      </g>
    </g>
  </g>
</svg>
