<svg xmlns="http://www.w3.org/2000/svg" width="40" height="40" viewBox="0 0 40 40">
  <g id="Purple" transform="translate(-203 -999)">
    <circle id="Ellipse_28" data-name="Ellipse 28" cx="20" cy="20" r="20" transform="translate(203 999)" fill="#3200ff" opacity="0.16"/>
    <path id="vote" d="M20.7,13.8a.431.431,0,0,0-.02-.1v0l-1.645-5a.445.445,0,0,0-.417-.308H16.344V3.123a.428.428,0,0,0-.118-.31L13.536.123A.419.419,0,0,0,13.231,0H4.805a.409.409,0,0,0-.417.425V8.393H2.112A.445.445,0,0,0,1.7,8.7L.05,13.7a.011.011,0,0,1,0,0,.441.441,0,0,0-.019.1c0,.005-.014.011-.015.017S0,13.829,0,13.837V24.257a.452.452,0,0,0,.466.425h19.8a.4.4,0,0,0,.411-.425V13.837c0-.008.013-.015.013-.023s.013-.011.013-.016ZM13.657,1.486l1.211,1.2H13.657ZM5.266.879h7.514V3.123a.454.454,0,0,0,.451.444h2.236v7.9H5.266ZM2.429,9.271H4.388v2.194h-.68a.439.439,0,0,0,0,.878H17.024a.439.439,0,0,0,0-.878h-.68V9.271H18.3l1.356,4.113H1.073ZM19.8,23.8H.878V14.262H19.8Zm0,0" transform="translate(213 1006.998)" fill="#3200ff"/>
  </g>
</svg>
