<svg id="sms" xmlns="http://www.w3.org/2000/svg" width="80" height="80" viewBox="0 0 80 80">
  <circle id="Ellipse_19" data-name="Ellipse 19" cx="40" cy="40" r="40" fill="#324a5e"/>
  <g id="Group_16" data-name="Group 16" transform="translate(15.374 30.053)">
    <path id="Path_18" data-name="Path 18" d="M146.052,216.53V189.5H96.8v27.03a5.765,5.765,0,0,0,5.773,5.773h37.706A5.765,5.765,0,0,0,146.052,216.53Z" transform="translate(-96.8 -189.5)" fill="#ffd05b"/>
    <path id="Path_19" data-name="Path 19" d="M146.052,189.5v27.03a5.774,5.774,0,0,1-5.773,5.773H102.573A5.774,5.774,0,0,1,96.8,216.53V189.5Z" transform="translate(-96.8 -189.5)" fill="#ffd05b"/>
  </g>
  <g id="Group_17" data-name="Group 17" transform="translate(15.374 14.067)">
    <path id="Path_20" data-name="Path 20" d="M118.12,89.844,96.8,104.727l24.626,17.192,24.61-17.192-21.3-14.883A5.756,5.756,0,0,0,118.12,89.844Z" transform="translate(-96.8 -88.784)" fill="#ff7058"/>
    <path id="Path_21" data-name="Path 21" d="M146.036,104.643l-6.342,4.429-18.268,12.764-18.3-12.764L96.8,104.643l6.327-4.429,8.92-6.232,6.073-4.239a5.756,5.756,0,0,1,6.611,0l6.073,4.239,8.92,6.232Z" transform="translate(-96.8 -88.7)" fill="#ff7058"/>
  </g>
  <path id="Path_22" data-name="Path 22" d="M173.383,124.683v12.59L155.1,150.037l-18.3-12.764V124.7a2.5,2.5,0,0,1,2.5-2.5h31.585A2.491,2.491,0,0,1,173.383,124.683Z" transform="translate(-115.099 -102.825)" fill="#fff"/>
  <path id="Path_23" data-name="Path 23" d="M153.905,288.389a5.753,5.753,0,0,1-4,1.6H112.1a5.724,5.724,0,0,1-4-1.6l19.033-17.018a5.806,5.806,0,0,1,7.724,0Z" transform="translate(-91.003 -227.121)" fill="#f9b54c"/>
  <g id="Group_18" data-name="Group 18" transform="translate(28.549 26.175)">
    <path id="Path_24" data-name="Path 24" d="M182.378,166.845a.632.632,0,0,0-.237.522.578.578,0,0,0,.3.522,5.264,5.264,0,0,0,1.36.459,3.807,3.807,0,0,1,1.645.791,1.911,1.911,0,0,1,.585,1.518,2.01,2.01,0,0,1-.759,1.629,3.017,3.017,0,0,1-1.977.617,4.61,4.61,0,0,1-3.195-1.313l1-1.218a3.594,3.594,0,0,0,2.23,1.06,1.275,1.275,0,0,0,.728-.19.661.661,0,0,0-.016-1.076,3.644,3.644,0,0,0-1.091-.4,4.659,4.659,0,0,1-1.9-.807,1.923,1.923,0,0,1-.6-1.55,1.957,1.957,0,0,1,.759-1.645,3.074,3.074,0,0,1,1.9-.569,4.452,4.452,0,0,1,1.487.253,4,4,0,0,1,1.3.728l-.838,1.218a3.294,3.294,0,0,0-2.009-.743A.952.952,0,0,0,182.378,166.845Z" transform="translate(-180.1 -165.2)" fill="#4cdbc4"/>
    <path id="Path_25" data-name="Path 25" d="M233.174,169.052l-2.009,4.081h-1l-2.009-4.081v4.7H226.5V166.3h2.246l1.914,4.1,1.93-4.1h2.246v7.449h-1.661Z" transform="translate(-219.161 -166.126)" fill="#4cdbc4"/>
    <path id="Path_26" data-name="Path 26" d="M289.678,166.845a.632.632,0,0,0-.237.522.578.578,0,0,0,.3.522,5.264,5.264,0,0,0,1.36.459,3.807,3.807,0,0,1,1.645.791,1.911,1.911,0,0,1,.585,1.518,2.01,2.01,0,0,1-.759,1.629,3.017,3.017,0,0,1-1.977.617,4.61,4.61,0,0,1-3.195-1.313l1-1.218a3.594,3.594,0,0,0,2.23,1.06,1.275,1.275,0,0,0,.728-.19.661.661,0,0,0-.016-1.076,3.644,3.644,0,0,0-1.091-.4,4.66,4.66,0,0,1-1.9-.807,1.923,1.923,0,0,1-.6-1.55,1.957,1.957,0,0,1,.759-1.645,3.074,3.074,0,0,1,1.9-.569,4.451,4.451,0,0,1,1.487.253,4,4,0,0,1,1.3.728l-.838,1.218a3.294,3.294,0,0,0-2.009-.743A.952.952,0,0,0,289.678,166.845Z" transform="translate(-270.429 -165.2)" fill="#4cdbc4"/>
  </g>
</svg>
