<svg xmlns="http://www.w3.org/2000/svg" width="40" height="40" viewBox="0 0 40 40">
  <g id="Wine_Illustration" data-name="Wine Illustration" transform="translate(-203 -999)">
    <circle id="Ellipse_28" data-name="Ellipse 28" cx="20" cy="20" r="20" transform="translate(203 999)" fill="#ff5252" opacity="0.16"/>
    <g id="_3d" data-name="3d" transform="translate(211 1007)">
      <path id="Path_65" data-name="Path 65" d="M24,58a2,2,0,0,0-2-2h-.8v.8H22A1.2,1.2,0,0,1,23.2,58v11.19H.8V58A1.2,1.2,0,0,1,2,56.8h.4V56H2a2,2,0,0,0-2,2V70.786a2,2,0,0,0,2,2H9.428l-1.308,3.6H6.8v.8H17.2v-.8H15.88l-1.308-3.6H22a2,2,0,0,0,2-2ZM15.027,76.381H8.969l1.311-3.6h3.44ZM22,71.985H2a1.2,1.2,0,0,1-1.2-1.2v-.8H23.2v.8A1.2,1.2,0,0,1,22,71.985Zm0,0" transform="translate(0 -53.18)" fill="#ff5252"/>
      <path id="Path_66" data-name="Path 66" d="M81.555,15.306V4.431c0-.008,0-.016,0-.025a.4.4,0,0,0-.021-.1c0-.013-.008-.025-.013-.038a.4.4,0,0,0-.08-.118L77.447.118a.4.4,0,0,0-.12-.081C77.316.032,77.3.029,77.291.025a.4.4,0,0,0-.1-.021s-.012,0-.02,0H65.6A1.6,1.6,0,0,0,64,1.611v13.7h.8V1.611a.8.8,0,0,1,.8-.806H76.767V3.222a1.6,1.6,0,0,0,1.6,1.611h2.394V15.306ZM78.363,4.028a.8.8,0,0,1-.8-.806V1.376l2.628,2.652Zm0,0" transform="translate(-60.778)" fill="#ff5252"/>
      <path id="Path_67" data-name="Path 67" d="M95.961,32h.806v.806h-.806Zm0,0" transform="translate(-91.164 -30.389)" fill="#ff5252"/>
      <path id="Path_68" data-name="Path 68" d="M127.961,32h.806v.806h-.806Zm0,0" transform="translate(-121.564 -30.389)" fill="#ff5252"/>
      <path id="Path_69" data-name="Path 69" d="M159.961,32h.806v.806h-.806Zm0,0" transform="translate(-151.965 -30.389)" fill="#ff5252"/>
      <path id="Path_70" data-name="Path 70" d="M175.244,102.109V98.483c0-.011,0-.022,0-.033a.373.373,0,0,0-.009-.068.364.364,0,0,0-.014-.04.459.459,0,0,0-.024-.056,5.962,5.962,0,0,1-.063-.08.358.358,0,0,0-.04-.033l-.032-.027-3.222-2.087a.4.4,0,0,0-.433,0l-3.222,2.014a.44.44,0,0,0-.038.031.329.329,0,0,0-.035.029.366.366,0,0,0-.04.049c-.008.011-.018.021-.025.033a.392.392,0,0,0-.027.064.286.286,0,0,0-.013.032.415.415,0,0,0-.009.1v3.625a.4.4,0,0,0,.189.342l3.222,2.014.007,0,.008.006a.37.37,0,0,0,.062.025c.01,0,.02.009.03.012a.383.383,0,0,0,.209,0c.011,0,.02-.008.031-.012a.376.376,0,0,0,.061-.024l.007,0,.006,0,3.222-1.941A.4.4,0,0,0,175.244,102.109Zm-4.028,1.216-2.417-1.51V99.139l2.417,1.51Zm.537-3.449-.13.078-1.233-.771-1.233-.773,2.457-1.536,2.466,1.6Zm2.686,2.005-2.417,1.456v-2.685l2.417-1.456Zm0,0" transform="translate(-159.619 -91.211)" fill="#ff5252"/>
      <path id="Path_71" data-name="Path 71" d="M124.691,113.448l.334-.733,1.611.733-.334.733Zm0,0" transform="translate(-118.46 -107.081)" fill="#ff5252"/>
      <path id="Path_72" data-name="Path 72" d="M124.691,218.905l1.611-.733.334.733-1.611.733Zm0,0" transform="translate(-118.46 -207.269)" fill="#ff5252"/>
      <path id="Path_73" data-name="Path 73" d="M316.691,116.362l1.611-.732.333.733-1.611.732Zm0,0" transform="translate(-300.866 -109.85)" fill="#ff5252"/>
      <path id="Path_74" data-name="Path 74" d="M316.691,218.905l.333-.733,1.611.732-.333.733Zm0,0" transform="translate(-300.866 -207.268)" fill="#ff5252"/>
      <path id="Path_75" data-name="Path 75" d="M232,56h.806v1.208H232Zm0,0" transform="translate(-220.403 -53.18)" fill="#ff5252"/>
      <path id="Path_76" data-name="Path 76" d="M232,280h.806v1.208H232Zm0,0" transform="translate(-220.403 -266.005)" fill="#ff5252"/>
    </g>
  </g>
</svg>
