<svg xmlns="http://www.w3.org/2000/svg" width="9.212" height="9.192" viewBox="0 0 9.212 9.192">
  <path id="Path_2" data-name="Path 2" d="M942.378,657.166a2.525,2.525,0,0,1-1.411-3.055,1.307,1.307,0,0,0,.055-.275h0a1.266,1.266,0,0,0-2.278-.846h0a1.306,1.306,0,0,0-.138.255,2.532,2.532,0,0,1-3.062,1.376,1.21,1.21,0,0,0-.275-.055h0a1.266,1.266,0,0,0-.84,2.278h0a1.118,1.118,0,0,0,.248.145,2.532,2.532,0,0,1,1.411,3.055.793.793,0,0,0-.055.282h0a1.266,1.266,0,0,0,2.278.84h0a1.746,1.746,0,0,0,.138-.248,2.525,2.525,0,0,1,3.055-1.376,1.274,1.274,0,0,0,.282.055h0a1.266,1.266,0,0,0,.839-2.278h0A1.793,1.793,0,0,0,942.378,657.166Z" transform="translate(-933.922 -652.48)" fill="#4d8af0" opacity="0.5"/>
</svg>
