<svg xmlns="http://www.w3.org/2000/svg" width="9.178" height="9.192" viewBox="0 0 9.178 9.192">
  <path id="Path_4" data-name="Path 4" d="M249.378,710.166a2.525,2.525,0,0,1-1.411-3.055,1.3,1.3,0,0,0,.055-.275h0a1.266,1.266,0,0,0-2.278-.846h0a1.311,1.311,0,0,0-.138.255,2.532,2.532,0,0,1-3.062,1.376,1.217,1.217,0,0,0-.275-.055h0a1.266,1.266,0,0,0-.84,2.278h0a1.117,1.117,0,0,0,.248.145,2.532,2.532,0,0,1,1.376,3.055.792.792,0,0,0-.055.282h0a1.266,1.266,0,0,0,2.278.839h0a1.742,1.742,0,0,0,.138-.248,2.525,2.525,0,0,1,3.055-1.376,1.281,1.281,0,0,0,.282.055h0a1.266,1.266,0,0,0,.84-2.278h0A1.8,1.8,0,0,0,249.378,710.166Z" transform="translate(-240.921 -705.48)" fill="#4d8af0" opacity="0.5"/>
</svg>
